<?xml version="1.0" encoding="utf-8"?>
<!-- Generator: Adobe Illustrator 19.1.0, SVG Export Plug-In . SVG Version: 6.00 Build 0)  -->
<svg version="1.1" id="Layer_1" xmlns="http://www.w3.org/2000/svg" xmlns:xlink="http://www.w3.org/1999/xlink" x="0px" y="0px"
	 viewBox="0 0 356.244 355.91" enable-background="new 0 0 356.244 355.91" xml:space="preserve">
<g>
	<defs>
		<circle id="SVGID_1_" cx="178.122" cy="177.788" r="178.122"/>
	</defs>
	<use xlink:href="#SVGID_1_"  overflow="visible" fill="#B3E5FC"/>
	<clipPath id="SVGID_2_">
		<use xlink:href="#SVGID_1_"  overflow="visible"/>
	</clipPath>
	<g clip-path="url(#SVGID_2_)">
		<g>
			<defs>
				<rect id="SVGID_3_" x="29.122" y="239" width="298" height="148"/>
			</defs>
			<clipPath id="SVGID_4_">
				<use xlink:href="#SVGID_3_"  overflow="visible"/>
			</clipPath>
			<path clip-path="url(#SVGID_4_)" fill="#575757" stroke="#000000" stroke-width="3" stroke-miterlimit="10" d="M299.622,428.532
				c0,22.073-17.894,39.968-39.967,39.968H96.589c-22.073,0-39.967-17.895-39.967-39.968V305.468
				c0-22.073,17.894-39.968,39.967-39.968h163.066c22.073,0,39.967,17.895,39.967,39.968V428.532z"/>
		</g>
		<path d="M281.122,317.577c0-28.777-6.867-35.801-21.143-35.801s-18.105,6.798-18.105,6.798
			c-0.905-8.839,2.899-14.728,2.899-14.728s-7.952,8.61-13.615,11.557c-5.663,2.947,0.441-13.818,1.348-17.851
			c0.905-4.028-15.681-0.997-15.681-0.997c-36.977,4.489-74.279,0.73-81.933,0.006c-6.679-0.633-10.191,12.295-10.976,15.603
			c-0.06-0.044-0.101-0.076-0.164-0.123c-7.252-5.438-15.841-7.666-15.841-7.666c4.306,6.57,4.576,14.807,4.576,14.807
			c-44.186-24.017-40.022,18.552-39.569,32.825C73.13,328.58,73.181,375,73.177,387h207.945
			C281.122,376,281.122,329.48,281.122,317.577z"/>
		<g>
			<defs>
				<rect id="SVGID_5_" x="27.122" y="237" width="302" height="150"/>
			</defs>
			<clipPath id="SVGID_6_">
				<use xlink:href="#SVGID_5_"  overflow="visible"/>
			</clipPath>
			<g clip-path="url(#SVGID_6_)">
				<path fill="none" d="M301.122,431.113c0,22.408-17.934,40.887-40.345,40.887H94.439c-22.41,0-40.317-18.478-40.317-40.887
					v-126.29c0-22.409,17.907-40.823,40.317-40.823h166.338c22.411,0,40.345,18.414,40.345,40.823V431.113z"/>
				<path fill="none" d="M305.122,430.38c0,24.091-19.529,43.62-43.619,43.62H95.741c-24.09,0-43.619-19.529-43.619-43.62V304.62
					c0-24.091,19.529-43.62,43.619-43.62h165.762c24.09,0,43.619,19.529,43.619,43.62V430.38z M299.122,303.833
					c0-20.728-16.625-37.833-37.355-37.833H95.503c-20.729,0-37.381,17.105-37.381,37.833v126.215
					c0,20.729,16.652,37.952,37.381,37.952h166.264c20.73,0,37.355-17.223,37.355-37.952V303.833z"/>
			</g>
		</g>
		<g>
			<g>
				<g>
					<path fill="#FEE8DC" d="M65.18,132.58c0,0-8.578-15.246-20.342-15.246c-11.761,0-12.779,19.023-12.779,23.235
						c0,4.212-0.581,19.458,12.49,38.048c13.07,18.591,25.029,20.703,34.661,13.981C88.842,185.878,65.18,132.58,65.18,132.58z"/>
					<path d="M68.873,199.135L68.873,199.135c-9.037,0-18.004-6.314-26.76-18.768c-13.141-18.691-12.991-34.201-12.991-39.297
						v-0.501c0-12.123,4.09-26.278,15.769-26.278c13.39,0,22.582,16.11,22.966,16.797l0.118,0.257
						c7.42,16.716,23.535,56.388,12.983,63.749C77.115,197.775,73.045,199.135,68.873,199.135z M45.349,120.377
						c-9.626,0-9.227,19.989-9.227,20.191v0.531c0,4.615-0.598,18.664,11.428,35.767c7.442,10.587,14.737,16.183,21.579,16.183
						c2.901,0,5.666-0.991,8.467-2.946c3.578-2.495-1.516-26.15-14.811-56.138C62.015,132.662,54.7,120.377,45.349,120.377z"/>
				</g>
				<g>
					<path fill="#FECFBC" d="M41.052,147.566c0,0-5.539-19.724,3.917-19.724c9.457,0,18.911,29.044,18.911,29.044
						s-15.533,16.749,9.591,24.044c0,0-17.831,8.24-28.097-14.184L41.052,147.566z"/>
				</g>
				<g>
					<path fill="#DC9F8D" d="M73.472,180.931c-25.124-7.295-9.591-24.044-9.591-24.044s-1.023-3.137-2.727-7.341
						c-0.005,0.004-18.707,8.218-5.092,30.196C64.795,184.929,73.472,180.931,73.472,180.931z"/>
				</g>
				<g>
					<path d="M65.822,183.431c-2.119,0-4.513-0.318-7.002-1.238c-5.983-2.213-10.816-7.268-14.366-15.023l1.844-0.844
						c3.317,7.246,7.767,11.945,13.225,13.964c4.173,1.542,8.097,1.183,10.63,0.621c-6.529-2.413-10.441-5.826-11.645-10.173
						c-1.746-6.3,2.805-12.379,4.228-14.081c-2.753-8.239-10.775-27.799-17.767-27.799c-1.339,0-2.341,0.464-3.065,1.419
						c-2.786,3.676-0.855,13.53,0.125,17.016l-1.954,0.549c-0.154-0.552-3.747-13.565,0.212-18.79
						c1.118-1.474,2.693-2.222,4.682-2.222c9.907,0,18.884,26.7,19.875,29.745l0.185,0.565l-0.404,0.438
						c-0.06,0.064-5.876,6.454-4.16,12.627c1.183,4.255,5.654,7.538,13.29,9.754l2.605,0.756l-2.462,1.138
						C73.699,181.944,70.404,183.431,65.822,183.431z"/>
				</g>
				<g>
					<path d="M48.293,142.777l-1.787-0.962c2.151-3.992,9.247-4.125,9.547-4.129l0.025,2.029
						C54.359,139.738,49.608,140.336,48.293,142.777z"/>
				</g>
				<g>
					<path d="M55.205,180.282c-4.74-7.645-6.202-14.549-4.349-20.516c2.42-7.791,9.587-11.016,9.89-11.149l0.817,1.857
						c-0.066,0.029-6.645,3.014-8.777,9.917c-1.661,5.377-0.266,11.709,4.142,18.823L55.205,180.282z"/>
				</g>
			</g>
			<g>
				<g>
					<path fill="#FEE8DC" d="M289.822,132.58c0,0,8.575-15.246,20.341-15.246c11.761,0,12.779,19.023,12.779,23.235
						c0,4.212,0.581,19.458-12.49,38.048c-13.069,18.591-25.029,20.703-34.661,13.981
						C266.158,185.878,289.822,132.58,289.822,132.58z"/>
					<path d="M286.129,199.135c-4.174,0-8.236-1.36-12.078-4.042c-10.553-7.361,5.569-47.032,12.988-63.749l0.13-0.257
						c0.386-0.687,8.671-16.797,22.061-16.797c11.679,0,14.893,14.155,14.893,26.278v0.501c0,5.097,1.028,20.606-12.111,39.297
						C303.253,192.821,295.165,199.135,286.129,199.135z M292.542,133.951c-13.297,29.993-18.584,53.658-15.008,56.152
						c2.8,1.955,5.691,2.946,8.595,2.946c6.841,0,14.002-5.595,21.443-16.183c12.026-17.103,11.55-31.151,11.55-35.767v-0.531
						c0-0.202,0.277-20.191-9.35-20.191C301.67,120.377,294.77,130.058,292.542,133.951z"/>
				</g>
				<g>
					<path fill="#FECFBC" d="M313.95,147.566c0,0,5.538-19.724-3.918-19.724c-9.457,0-18.913,29.044-18.913,29.044
						s15.536,16.749-9.589,24.044c0,0,17.831,8.24,28.098-14.184L313.95,147.566z"/>
				</g>
				<g>
					<path fill="#DC9F8D" d="M281.53,180.931c25.125-7.295,9.589-24.044,9.589-24.044s1.024-3.137,2.726-7.341
						c0.008,0.004,18.71,8.218,5.097,30.196C290.208,184.929,281.53,180.931,281.53,180.931z"/>
				</g>
				<g>
					<path d="M289.181,183.431c-4.584,0-7.878-1.487-8.077-1.58l-2.463-1.138l2.605-0.756c7.64-2.219,12.114-5.503,13.293-9.761
						c1.713-6.191-4.105-12.556-4.163-12.62l-0.406-0.437l0.185-0.566c0.99-3.044,9.972-29.745,19.878-29.745
						c1.989,0,3.564,0.748,4.682,2.222c3.959,5.225,0.367,18.239,0.213,18.79l-1.954-0.549c0.979-3.488,2.906-13.346,0.124-17.016
						c-0.724-0.955-1.726-1.419-3.064-1.419c-6.991,0-15.016,19.56-17.768,27.798c1.423,1.703,5.974,7.782,4.23,14.082
						c-1.205,4.346-5.113,7.758-11.642,10.171c1.751,0.39,4.159,0.681,6.836,0.321c7.207-0.968,12.934-5.984,17.017-14.904
						l1.846,0.844c-3.553,7.755-8.384,12.81-14.368,15.023C293.693,183.112,291.298,183.431,289.181,183.431z"/>
				</g>
				<g>
					<path d="M306.706,142.776c-1.318-2.45-6.064-3.041-7.78-3.061l0.023-2.029c0.302,0.004,7.394,0.137,9.544,4.13L306.706,142.776
						z"/>
				</g>
				<g>
					<path d="M299.8,180.282l-1.725-1.068c4.406-7.113,5.802-13.446,4.141-18.822c-2.133-6.905-8.714-9.889-8.781-9.919l0.818-1.857
						c0.304,0.133,7.472,3.358,9.892,11.151C306,165.734,304.537,172.636,299.8,180.282z"/>
				</g>
			</g>
			<g>
				<g>
					<g>
						<path fill="#FEE8DC" d="M135.122,264.724c0,13.444,13.442,26.276,26.889,26.276h34.49c13.445,0,21.621-12.832,21.621-26.276
							V241h-83V264.724z"/>
						<path d="M196.501,293h-34.49c-14.777,0-28.889-13.942-28.889-28.276V239h87v25.724C220.122,278.493,211.745,293,196.501,293z
							 M137.122,243v21.724c0,12.06,12.395,24.276,24.889,24.276h34.49c12.607,0,19.621-12.475,19.621-24.276V243H137.122z"/>
					</g>
				</g>
				<g>
					<g>
						<path fill="#FECFBC" d="M145.122,264.724c0,13.444,11.095,26.276,20.95,26.276h25.281c9.856,0,16.769-12.832,16.769-26.276
							V241h-63V264.724z"/>
					</g>
				</g>
				<g>
					<g>
						<path d="M196.501,293h-34.49c-14.777,0-28.889-13.942-28.889-28.276V239h87v25.724C220.122,278.493,211.745,293,196.501,293z
							 M137.122,243v21.724c0,12.06,12.395,24.276,24.889,24.276h34.49c12.607,0,19.621-12.475,19.621-24.276V243H137.122z"/>
					</g>
				</g>
			</g>
			<g>
				<path fill="#FEE8DC" d="M236.379,243.689c37.422-36.472,43.534-60.716,47.287-84.125c3.752-23.409,14.636-56.62,7.881-88.807
					C284.789,38.569,261.787-25,177.216-25h-0.076C92.567-25,69.564,38.569,62.809,70.758c-6.754,32.188,4.129,66.714,7.882,90.123
					c3.752,23.409,9.865,46.996,47.284,83.467c33.072,32.233,59.166,30.031,59.166,30.031S203.591,275.647,236.379,243.689z"/>
				<path d="M176.117,277.361c-6.674,0-30.743-2.235-60.266-31.011c-37.746-36.787-44.322-61.36-48.166-85.341
					c-0.811-5.053-1.972-10.719-3.201-16.718c-4.482-21.873-10.062-49.096-4.654-74.866c7.751-36.93,33.298-98.883,117.31-98.883
					c84.081,0,109.632,61.953,117.385,98.883c5.382,25.641-0.145,52.281-4.585,73.687c-1.258,6.062-2.445,11.788-3.27,16.933
					c-3.893,24.282-10.506,49.118-48.169,85.823c-30.732,29.955-56.107,31.473-60.885,31.473l0,0c-0.184,0-0.329-0.002-0.432-0.004
					C176.981,277.348,176.623,277.361,176.117,277.361z M177.216-23.371c-79.787,0-104.057,58.923-111.43,94.047
					c-5.147,24.534,0.292,51.07,4.661,72.393c1.242,6.066,2.417,11.795,3.248,16.977c3.817,23.809,9.943,46.41,46.404,81.945
					c28.597,27.873,51.682,29.284,56.018,29.284c0.467,0,0.735-0.017,0.792-0.02l0.185-0.012l0.523,0.012
					c2.674,0,26.976-0.834,56.638-29.745c36.33-35.405,42.682-59.193,46.405-82.426c0.848-5.282,2.048-11.074,3.32-17.206
					c4.324-20.852,9.709-46.804,4.589-71.201C281.195,35.552,256.923-23.371,177.216-23.371z"/>
			</g>
			<g>
				<circle fill="#6C6E70" cx="314.005" cy="134.878" r="3.822"/>
				<path d="M314.005,139.714c-2.666,0-4.836-2.17-4.836-4.837s2.17-4.836,4.836-4.836c2.667,0,4.836,2.17,4.836,4.836
					S316.672,139.714,314.005,139.714z M314.005,132.07c-1.548,0-2.808,1.259-2.808,2.808c0,1.548,1.26,2.808,2.808,2.808
					c1.548,0,2.808-1.259,2.808-2.808C316.812,133.33,315.553,132.07,314.005,132.07z"/>
			</g>
			<g>
				<circle fill="#6C6E70" cx="314.005" cy="147.051" r="3.822"/>
				<path d="M314.005,151.887c-2.666,0-4.836-2.169-4.836-4.836c0-2.667,2.17-4.836,4.836-4.836c2.667,0,4.836,2.17,4.836,4.836
					C318.841,149.718,316.672,151.887,314.005,151.887z M314.005,144.243c-1.548,0-2.808,1.259-2.808,2.808
					c0,1.548,1.26,2.808,2.808,2.808c1.548,0,2.808-1.259,2.808-2.808C316.812,145.502,315.553,144.243,314.005,144.243z"/>
			</g>
		</g>
		<g>
			<path fill="#FECFBC" d="M91.356,100.305c0,0,17.019-32.679,20.764-56.508c3.744-23.829,20.084-40.509,65.699-40.509
				c45.618,0,55.147,20.084,66.381,48.51s11.916,38.637,22.468,48.508c0,0-15.319,2.726-15.319,31.661
				c0,28.935,12.597,20.423,10.215,39.146c-2.385,18.722-6.809,42.893-42.212,68.423c-35.403,25.53-40.851,29.955-63.659,16.34
				c-22.809-13.616-35.742-27.914-45.275-39.828c-9.531-11.916-13.957-34.383-14.978-40.169c-1.02-5.789-6.469-12.596,2.043-19.404
				C105.994,149.666,127.44,129.921,91.356,100.305z"/>
		</g>
		<g>
			<path fill="#DC9F8D" d="M125.663,92.391c-19.219,0-30.046,5.126-34.135,7.581c-0.107,0.212-0.171,0.333-0.171,0.333
				c13.215,10.848,18.695,20.364,19.938,28.412c20.362-3.662,33.153-11.341,38.665-16.853
				C157.092,104.73,150.922,92.391,125.663,92.391z"/>
		</g>
		<g>
			<path fill="#DC9F8D" d="M200.164,105.921c0,4.535,6.391,17.521,22.674,23.5c7.202,2.643,18.354,1.777,28.555-0.01
				c0.846-25.772,14.449-28.938,15.236-29.099c-4.953-3.27-15.22-7.921-33.69-7.921C204.493,92.391,200.164,101.386,200.164,105.921
				z"/>
		</g>
		<g>
			<path d="M91.559,101.136c0,0,13.122-4.772,22.5-4.772c9.375,0,31.665-0.703,38.317,2.321L146.236,88h-41.911
				C104.326,88,94.65,92.945,91.559,101.136z"/>
		</g>
		<g>
			<path d="M200.153,98.438c0,0,10.694-1.458,20.373-1.458c9.679,0,29.848-2.392,36.802,0.784c6.959,3.176,9.932,3.359,9.932,3.359
				L256.326,88h-47.787L200.153,98.438z"/>
		</g>
		<g>
			
				<rect x="147.237" y="92.502" transform="matrix(0.5011 0.8654 -0.8654 0.5011 157.4353 -86.0643)" width="12.254" height="2.028"/>
		</g>
		<g>
			
				<rect x="151.295" y="92.502" transform="matrix(0.5011 0.8654 -0.8654 0.5011 159.4672 -89.5756)" width="12.253" height="2.029"/>
		</g>
		<g>
			
				<rect x="199.274" y="86.727" transform="matrix(0.7764 0.6303 -0.6303 0.7764 103.6468 -105.3552)" width="2.029" height="13.307"/>
		</g>
		<g>
			
				<rect x="195.217" y="86.727" transform="matrix(0.7763 0.6303 -0.6303 0.7763 102.7459 -102.8008)" width="2.029" height="13.307"/>
		</g>
		<g>
			<g>
				<g>
					
						<ellipse transform="matrix(0.9913 0.1313 -0.1313 0.9913 18.1435 -14.7385)" fill="#FFFFFF" cx="120.84" cy="130.22" rx="27.351" ry="14.349"/>
					<path d="M125.669,145.91c-2.247,0-4.55-0.154-6.846-0.458c-15.768-2.088-27.234-10.414-26.103-18.954
						c0.932-7.043,10.508-11.963,23.287-11.963c2.247,0,4.552,0.154,6.849,0.459c15.768,2.088,27.233,10.412,26.103,18.952
						C148.026,140.989,138.448,145.91,125.669,145.91z M116.008,116.563c-11.546,0-20.494,4.289-21.276,10.2
						c-0.965,7.289,9.961,14.77,24.357,16.677c2.209,0.292,4.423,0.441,6.581,0.441c11.547,0,20.496-4.291,21.279-10.202
						c0.965-7.288-9.962-14.769-24.357-16.675C120.381,116.712,118.166,116.563,116.008,116.563z"/>
				</g>
				<g>
					<ellipse fill="#30201D" cx="121.854" cy="129.16" rx="14.762" ry="13.885"/>
				</g>
				<g opacity="0.8">
					<g>
						<path fill="#FFFFFF" d="M126.178,116.23c-0.228,2.726-0.882,5.73-2.415,8.306c2.33,0.271,4.147,2.227,4.147,4.631
							c0,0.557-0.113,1.084-0.294,1.581c2.079-3.18,5.006-5.159,7.705-6.372C133.766,120.508,130.396,117.478,126.178,116.23z"/>
					</g>
					<g>
						<path fill="#56453D" d="M118.564,129.434c-3.218,1.814-7.173,2.849-10.575,3.428c1.71,5.691,7.261,9.867,13.863,9.867
							c1.04,0,2.052-0.111,3.033-0.308c-0.246-4.258,0.547-7.602,1.9-10.241c-0.859,1.014-2.128,1.674-3.562,1.674
							C120.728,133.854,118.706,131.894,118.564,129.434z"/>
					</g>
				</g>
				<g>
					<path fill="#1C0F0C" d="M121.856,117.302c7.021,0,12.731,5.319,12.731,11.858c0,6.537-5.711,11.855-12.731,11.855
						c-7.023,0-12.736-5.318-12.736-11.855C109.121,122.622,114.834,117.302,121.856,117.302 M121.856,115.273
						c-8.155,0-14.765,6.217-14.765,13.887c0,7.667,6.61,13.885,14.765,13.885c8.151,0,14.76-6.217,14.76-13.885
						C136.617,121.491,130.008,115.273,121.856,115.273L121.856,115.273z"/>
				</g>
				<g>
					<path d="M139.908,116.139c-0.231-0.143-23.37-13.946-43.604-0.03l-1.149-1.672c21.334-14.666,45.569-0.177,45.811-0.029
						L139.908,116.139z"/>
				</g>
				<g>
					<path d="M94.363,130.961c0,0-2.756-12.286,22.255-12.286c25.014,0,29.664,8.888,29.664,8.888s-9.011-12.011-29.769-12.011
						S92.435,125.685,94.363,130.961z"/>
				</g>
				<g>
					<circle cx="123.261" cy="129.16" r="5.242"/>
				</g>
			</g>
			<g>
				<g>
					
						<ellipse transform="matrix(-0.9913 0.1313 -0.1313 -0.9913 479.9451 228.7957)" fill="#FFFFFF" cx="232.43" cy="130.22" rx="27.35" ry="14.349"/>
					<path d="M227.602,145.91L227.602,145.91c-12.782,0-22.359-4.921-23.293-11.965c-1.129-8.539,10.337-16.864,26.105-18.952
						c2.298-0.305,4.602-0.459,6.849-0.459c12.779,0,22.355,4.92,23.288,11.963c1.13,8.54-10.336,16.866-26.104,18.954
						C232.151,145.755,229.847,145.91,227.602,145.91z M237.262,116.563c-2.157,0-4.371,0.149-6.583,0.441
						c-14.396,1.907-25.321,9.387-24.355,16.675c0.781,5.911,9.731,10.202,21.278,10.202l0,0c2.157,0,4.371-0.149,6.58-0.441
						c14.396-1.907,25.322-9.388,24.355-16.677C257.754,120.852,248.807,116.563,237.262,116.563z"/>
				</g>
				<g>
					<ellipse fill="#30201D" cx="231.415" cy="129.16" rx="14.763" ry="13.885"/>
				</g>
				<g opacity="0.8">
					<g>
						<path fill="#FFFFFF" d="M227.092,116.23c0.229,2.726,0.882,5.73,2.415,8.306c-2.329,0.271-4.146,2.227-4.146,4.631
							c0,0.557,0.113,1.084,0.294,1.581c-2.079-3.18-5.008-5.159-7.707-6.372C219.503,120.508,222.874,117.478,227.092,116.23z"/>
					</g>
					<g>
						<path fill="#56453D" d="M234.706,129.434c3.219,1.814,7.172,2.849,10.574,3.428c-1.71,5.691-7.262,9.867-13.862,9.867
							c-1.04,0-2.054-0.111-3.034-0.308c0.246-4.258-0.547-7.602-1.899-10.241c0.859,1.014,2.127,1.674,3.562,1.674
							C232.543,133.854,234.564,131.894,234.706,129.434z"/>
					</g>
				</g>
				<g>
					<path fill="#1C0F0C" d="M231.414,117.302c7.02,0,12.735,5.319,12.735,11.858c0,6.537-5.715,11.855-12.735,11.855
						c-7.021,0-12.733-5.318-12.733-11.855C218.681,122.622,224.394,117.302,231.414,117.302 M231.414,115.273
						c-8.151,0-14.762,6.217-14.762,13.887c0,7.667,6.61,13.885,14.762,13.885c8.153,0,14.764-6.217,14.764-13.885
						C246.178,121.491,239.567,115.273,231.414,115.273L231.414,115.273z"/>
				</g>
				<g>
					<path d="M213.362,116.139l-1.058-1.731c0.241-0.148,24.479-14.636,45.811,0.029l-1.149,1.672
						C236.708,102.178,213.596,115.998,213.362,116.139z"/>
				</g>
				<g>
					<path d="M258.907,130.961c0,0,2.756-12.286-22.256-12.286c-25.014,0-29.664,8.888-29.664,8.888s9.012-12.011,29.77-12.011
						S260.835,125.685,258.907,130.961z"/>
				</g>
				<g>
					<circle cx="230.009" cy="129.16" r="5.242"/>
				</g>
			</g>
		</g>
		<g opacity="0.4">
			<path fill="#FFFFFF" d="M85.661,121.247c-5.773,20.886,10.814,26.636,24.12,28.094c11.442-6.843,23.289-16.032,23.289-24.776
				c0-7.483-1.623-12.011-3.448-14.787c-2.465-0.065-5.094-0.103-7.931-0.103C88.553,109.676,85.883,120.446,85.661,121.247z"/>
		</g>
		<g>
			<path d="M118.597,150.816c-10.773,0-24.999-1.816-31.585-10.469c-3.74-4.915-4.524-11.431-2.33-19.371
				c0.796-2.904,5.802-12.315,37.007-12.315c34.868,0,40.901,5.309,42.263,9.934c1.433,4.868-1.207,21.313-9.102,26.387
				c-8.32,5.349-30.152,5.683-30.367,5.683c-0.175,0-0.494,0.014-0.936,0.033C122.488,150.743,120.757,150.816,118.597,150.816z
				 M121.69,110.69c-31.182,0-34.742,9.696-35.045,10.802c-2.024,7.32-1.354,13.243,1.981,17.626
				c6.082,7.992,19.656,9.668,29.971,9.668c2.122,0,3.823-0.072,4.864-0.117c0.482-0.02,0.831-0.034,1.022-0.034
				c4.153,0,22.415-0.955,29.27-5.361c7.1-4.562,9.393-20.234,8.254-24.108C160.327,113.463,147.141,110.69,121.69,110.69z"/>
		</g>
		<g>
			
				<rect x="62.349" y="117.668" transform="matrix(0.9816 0.1912 -0.1912 0.9816 24.2452 -11.9427)" width="23.349" height="4.057"/>
		</g>
		<g opacity="0.4">
			<path fill="#FFFFFF" d="M231.751,109.686c-31.169,0.214-37.732,4.828-39.017,9.195c-1.314,4.47,1.312,20.514,8.679,25.247
				c3.825,2.46,10.894,3.85,17.235,4.62c6.588-5.474,8.422-13.477,12.479-25.537C233.187,117.094,232.931,112.767,231.751,109.686z"
				/>
		</g>
		<g>
			<path d="M237.119,152c-0.002,0-0.002,0-0.002,0c-2.16,0-3.892-0.665-4.949-0.711c-0.444-0.019-0.763-0.328-0.937-0.328
				c-0.216,0-22.046-0.482-30.367-5.832c-7.896-5.073-10.535-21.593-9.102-26.46c1.36-4.625,7.394-9.971,42.262-9.971
				c31.205,0,36.21,9.393,37.003,12.277c2.199,7.96,1.414,15.059-2.324,19.972C262.117,149.601,247.892,152,237.119,152z
				 M234.024,110.69c-25.449,0-38.638,2.773-40.317,8.477c-1.139,3.874,1.153,19.545,8.254,24.108
				c6.855,4.406,25.117,5.361,29.27,5.361c0.192,0,0.538,0.014,1.021,0.034c1.041,0.044,2.743,0.117,4.864,0.117
				c10.315,0,23.888-1.676,29.971-9.668c3.336-4.384,4.004-10.306,1.989-17.602C268.767,120.387,265.208,110.69,234.024,110.69z"/>
		</g>
		<g>
			
				<rect x="279.662" y="108.021" transform="matrix(0.1914 0.9815 -0.9815 0.1914 345.2726 -179.6936)" width="4.057" height="23.35"/>
		</g>
		<g>
			<path d="M192.187,119.734c-0.051-0.031-5-3.115-15.33-3.115c-10.092,0-13.116,2.935-13.145,2.964l-1.473-1.393
				c0.138-0.148,3.483-3.601,14.618-3.601c10.997,0,16.213,3.3,16.429,3.441L192.187,119.734z"/>
		</g>
		<g>
			<path d="M175.335,190.059c-9.238,0-11.501-3.459-13.501-6.51c-0.427-0.655-0.831-1.107-1.294-1.661
				c-0.581-0.695-1.176-0.889-1.773-0.889c-0.002,0-0.006,0-0.008,0c-0.886,0-1.73,0.598-1.98,0.891l-1.555-1.383
				c0.15-0.183,1.542-1.824,3.534-1.824c1.229,0,2.354,0.578,3.338,1.761c0.537,0.643,0.993,1.33,1.434,2.004
				c1.801,2.749,3.662,5.587,11.803,5.587c4.646,0,7.557-2.748,10.126-5.169c2.919-2.751,5.939-5.593,10.277-1.755l-1.344,1.519
				c-2.837-2.507-4.361-1.288-7.543,1.71C184.15,186.888,180.785,190.059,175.335,190.059z"/>
		</g>
		<g>
			<path fill="#DC9F8D" d="M189.75,156.917c0,0-5.297-5.298-7.365-7.364c-2.068-2.066-3.618-4.004-7.05-4.004
				s-7.293,0.904-9.876,3.745c-1.072,1.179-2.719,2.689-4.283,4.054c-0.335,1.418-0.843,3.008-1.598,4.597
				c2.403,0.571,5.478,0.571,7.818-0.509c3.357-1.551,8.656-1.679,11.499-0.518c2.843,1.165,8.658,1.035,9.95,1.035
				C190.137,157.952,189.75,156.917,189.75,156.917z"/>
		</g>
		<g>
			<path d="M155.533,186.158c-0.704,0-1.448-0.169-2.207-0.512c-3.451-1.56-6.839-6.588-6.839-10.153
				c0-4.815,2.772-7.458,8.294-12.726l0.521,0.309c5.47-5.221,5.534-13.075,5.534-13.075h2.028c0,0-0.07,8.729-6.161,14.544
				l-0.522,0.094c-5.422,5.171-7.666,7.109-7.666,11.056c0,2.795,2.902,6.964,5.646,8.203c1.676,0.756,2.498-0.018,2.768-0.257
				l1.339,1.497C157.48,185.833,156.544,186.158,155.533,186.158z"/>
		</g>
		<g>
			<path d="M194.534,186.35c-1.298,0-2.7-0.331-4.186-1.098l0.932-1.803c5.238,2.707,8.439-1.738,9.294-3.165
				c1.395-2.325,1.671-7.723,0.038-10.057c-1.898-2.718-4.512-8.962-4.622-9.226l1.874-0.781c0.025,0.062,2.637,6.306,4.412,8.844
				c2.144,3.068,1.812,9.308,0.037,12.264C200.689,184.034,197.971,186.35,194.534,186.35z"/>
		</g>
		<g>
			<path d="M174.939,217.71c-7.091,0-13.683-0.308-15.66-0.92c-3.689-1.137-17.27-3.274-17.407-3.295l0.315-2.005
				c0.563,0.09,13.862,2.181,17.689,3.36c3.656,1.132,25.326,1.108,33.128-0.032l22.719-3.329l0.293,2.007l-22.719,3.329
				C189.26,217.417,181.862,217.71,174.939,217.71z"/>
		</g>
		<g>
			<path fill="#DC9F8D" d="M187.508,230h-26.374c0,0,4.299,9.97,13.556,9.97C183.945,239.97,187.508,230,187.508,230z"/>
		</g>
		<g>
			<rect x="161.122" y="230" width="26" height="3"/>
		</g>
		<g>
			<path fill="#FEE8DC" d="M202.298,216.467c0,0-1.992,5.182-4.184,6.776c0,0,4.783,2.191,7.174,0
				C207.679,221.052,204.489,217.065,202.298,216.467z"/>
		</g>
		<g>
			<g>
				<circle cx="74.777" cy="131.093" r="1.47"/>
			</g>
			<g>
				<circle cx="80.863" cy="112.835" r="1.47"/>
			</g>
			<g>
				<circle cx="70.72" cy="110.806" r="1.47"/>
			</g>
			<g>
				<circle cx="84.921" cy="104.719" r="1.47"/>
			</g>
			<g>
				<circle cx="76.806" cy="100.661" r="1.47"/>
			</g>
			<g>
				<circle cx="68.691" cy="92.546" r="1.47"/>
			</g>
			<g>
				<circle cx="78.835" cy="90.517" r="1.47"/>
			</g>
			<g>
				<circle cx="72.749" cy="82.402" r="1.47"/>
			</g>
			<g>
				<circle cx="82.893" cy="74.286" r="1.47"/>
			</g>
			<g>
				<circle cx="70.72" cy="72.258" r="1.47"/>
			</g>
			<g>
				<circle cx="78.835" cy="64.143" r="1.47"/>
			</g>
			<g>
				<circle cx="74.777" cy="58.056" r="1.47"/>
			</g>
			<g>
				<circle cx="86.95" cy="60.084" r="1.47"/>
			</g>
			<g>
				<circle cx="82.893" cy="51.969" r="1.47"/>
			</g>
			<g>
				<circle cx="78.835" cy="43.854" r="1.47"/>
			</g>
			<g>
				<circle cx="88.979" cy="47.912" r="1.47"/>
			</g>
			<g>
				<circle cx="82.893" cy="37.768" r="1.47"/>
			</g>
		</g>
		<g>
			<g>
				<g>
					<circle cx="281.719" cy="131.093" r="1.47"/>
				</g>
			</g>
			<g>
				<g>
					<circle cx="273.602" cy="104.719" r="1.47"/>
				</g>
			</g>
			<g>
				<g>
					<circle cx="277.66" cy="112.835" r="1.47"/>
				</g>
			</g>
			<g>
				<g>
					<circle cx="281.719" cy="100.661" r="1.47"/>
				</g>
			</g>
			<g>
				<g>
					<circle cx="287.805" cy="92.546" r="1.47"/>
				</g>
			</g>
			<g>
				<g>
					<circle cx="275.631" cy="90.517" r="1.47"/>
				</g>
			</g>
			<g>
				<g>
					<circle cx="281.719" cy="82.402" r="1.47"/>
				</g>
			</g>
			<g>
				<g>
					<circle cx="273.602" cy="74.286" r="1.47"/>
				</g>
			</g>
			<g>
				<g>
					<circle cx="283.747" cy="72.258" r="1.47"/>
				</g>
			</g>
			<g>
				<g>
					<circle cx="277.66" cy="64.143" r="1.47"/>
				</g>
			</g>
			<g>
				<g>
					<circle cx="283.747" cy="58.056" r="1.47"/>
				</g>
			</g>
			<g>
				<g>
					<circle cx="269.545" cy="60.084" r="1.47"/>
				</g>
			</g>
			<g>
				<g>
					<circle cx="275.631" cy="53.998" r="1.47"/>
				</g>
			</g>
			<g>
				<g>
					<circle cx="267.515" cy="47.912" r="1.47"/>
				</g>
			</g>
			<g>
				<g>
					<circle cx="277.66" cy="43.854" r="1.47"/>
				</g>
			</g>
			<g>
				<g>
					<circle cx="271.574" cy="37.768" r="1.47"/>
				</g>
			</g>
		</g>
	</g>
</g>
</svg>
